<?xml version="1.0" encoding="iso-8859-1"?>
<!-- Generator: Adobe Illustrator 17.1.0, SVG Export Plug-In . SVG Version: 6.00 Build 0)  -->
<!DOCTYPE svg PUBLIC "-//W3C//DTD SVG 1.1//EN" "http://www.w3.org/Graphics/SVG/1.1/DTD/svg11.dtd">
<svg version="1.1" id="Capa_1" xmlns="http://www.w3.org/2000/svg" xmlns:xlink="http://www.w3.org/1999/xlink" x="0px" y="0px"
	 viewBox="0 0 402.232 402.232" style="enable-background:new 0 0 402.232 402.232;" xml:space="preserve">
<path d="M159.013,376.167c0,4.971-4.029,9-9,9H24.896c-4.954,0-8.977-4.004-9-8.958l-0.768-164.097
	c-0.002-0.418,0.025-0.837,0.082-1.252L31.574,90.217c0.605-4.462,4.416-7.791,8.918-7.791H74.85c4.503,0,8.313,3.328,8.918,7.79
	L98.09,195.787l78.57-58.146c1.55-1.146,3.426-1.766,5.354-1.766h25.887c4.937,0,8.953,3.977,9,8.914l0.473,49.549l76.614-56.698
	c1.55-1.147,3.426-1.766,5.354-1.766h25.889c4.943,0,8.96,3.986,9,8.929l0.306,38.703c0.04,4.971-3.958,9.032-8.928,9.071
	c-0.024,0-0.049,0-0.073,0c-4.938,0-8.959-3.982-8.998-8.929l-0.235-29.774H302.31l-88.414,65.43
	c-2.719,2.013-6.337,2.33-9.366,0.822c-3.028-1.508-4.955-4.587-4.987-7.97l-0.557-58.281h-14.004l-88.412,65.43
	c-2.558,1.893-5.924,2.294-8.854,1.057c-2.931-1.237-4.991-3.929-5.418-7.082l-15.31-112.854H48.355l-15.224,112.23l0.723,154.511
	h116.159C154.983,367.167,159.013,371.197,159.013,376.167z M59.084,60.555c4.971,0,9-4.029,9-9c0-7.438,2.803-9.203,10.908-13.21
	C87.326,34.224,99.921,27.996,99.921,9c0-4.971-4.029-9-9-9s-9,4.029-9,9c0,7.438-2.803,9.202-10.908,13.21
	c-8.334,4.121-20.93,10.349-20.93,29.345C50.084,56.526,54.113,60.555,59.084,60.555z M82.217,270.867v31.455c0,4.971,4.029,9,9,9
	s9-4.029,9-9v-31.455c0-4.971-4.029-9-9-9S82.217,265.896,82.217,270.867z M385.861,261.124
	c-5.311,42.667-26.92,80.712-60.847,107.127c-28.551,22.229-62.949,33.981-98.562,33.981c-6.705,0-13.452-0.417-20.212-1.258
	c-5.65-0.704-11.352-1.725-16.949-3.033c-3.753-0.877-6.531-4.046-6.909-7.881c-1.169-11.868-1.011-23.917,0.469-35.813
	c5.311-42.667,26.92-80.712,60.847-107.127c33.927-26.414,76.11-38.036,118.776-32.723c5.651,0.705,11.353,1.725,16.948,3.033
	c3.752,0.877,6.529,4.045,6.908,7.88C387.501,237.168,387.343,249.218,385.861,261.124z M368.909,233.608
	c-2.885-0.539-5.78-0.99-8.66-1.349c-37.893-4.719-75.36,5.604-105.493,29.064c-30.133,23.46-49.326,57.251-54.043,95.147
	c-0.556,4.463-0.902,8.95-1.038,13.438l82.337-72.135c3.737-3.275,9.424-2.9,12.7,0.839c3.275,3.739,2.9,9.425-0.839,12.7
	l-82.351,72.147c36.85,3.805,73.112-6.583,102.433-29.413c30.133-23.46,49.326-57.251,54.042-95.147
	C369.044,250.498,369.349,242.018,368.909,233.608z M124.49,270.867v31.455c0,4.971,4.029,9,9,9s9-4.029,9-9v-31.455
	c0-4.971-4.029-9-9-9S124.49,265.896,124.49,270.867z"/>
<g>
</g>
<g>
</g>
<g>
</g>
<g>
</g>
<g>
</g>
<g>
</g>
<g>
</g>
<g>
</g>
<g>
</g>
<g>
</g>
<g>
</g>
<g>
</g>
<g>
</g>
<g>
</g>
<g>
</g>
</svg>
