<?xml version="1.0" encoding="iso-8859-1"?>
<!-- Generator: Adobe Illustrator 17.1.0, SVG Export Plug-In . SVG Version: 6.00 Build 0)  -->
<!DOCTYPE svg PUBLIC "-//W3C//DTD SVG 1.1//EN" "http://www.w3.org/Graphics/SVG/1.1/DTD/svg11.dtd">
<svg version="1.1" id="Capa_1" xmlns="http://www.w3.org/2000/svg" xmlns:xlink="http://www.w3.org/1999/xlink" x="0px" y="0px"
	 viewBox="0 0 375.785 375.785" style="enable-background:new 0 0 375.785 375.785;" xml:space="preserve">
<path d="M137.905,118.25c-10.461,7.264-19.797,16-27.75,25.967c-1.777,2.227-4.397,3.387-7.041,3.387
	c-1.968,0-3.949-0.643-5.607-1.965c-3.885-3.1-4.522-8.763-1.422-12.648c9.042-11.332,19.658-21.266,31.554-29.525
	c4.082-2.834,9.69-1.823,12.525,2.26C143,109.807,141.988,115.415,137.905,118.25z M234.989,239.904
	c-0.637-1.723-1.805-3.267-3.45-4.363c-0.027-0.018-0.055-0.036-0.082-0.054c-0.408-0.266-0.839-0.5-1.289-0.698
	c-0.004-0.002-0.009-0.004-0.013-0.006c-0.001,0-0.003-0.001-0.004-0.002c-1.197-0.524-2.467-0.768-3.724-0.75l-58.458,0
	c-1.427-0.011-4.402-0.035-7.167-0.16c0.828-1.355,1.847-2.955,3.056-4.796c3.662-5.581,25.205-37.951,40.388-60.756l5.512,27.937
	c0.962,4.877,5.694,8.053,10.572,7.087c4.876-0.962,8.05-5.695,7.087-10.572l-9.687-49.097c-0.393-2.341-1.705-4.522-3.819-5.958
	c-0.017-0.012-0.034-0.023-0.05-0.034c-0.224-0.15-0.454-0.29-0.688-0.418c-0.918-0.503-1.892-0.831-2.88-0.99
	c-0.001-0.002-0.004-0.001-0.006-0.001c-1.046-0.17-2.122-0.155-3.18,0.055l-49.355,9.74c-4.876,0.962-8.049,5.695-7.087,10.572
	c0.962,4.876,5.696,8.051,10.572,7.087l28.138-5.553c-15.203,22.833-36.872,55.393-40.565,61.022
	c-5.792,8.821-11.264,17.152-7.138,24.868c4.167,7.794,13.871,7.87,26.228,7.965h41.842c-15.211,22.844-29.972,45.035-32.615,49.064
	c-2.727,4.156-1.568,9.736,2.588,12.462c1.522,0.999,3.235,1.476,4.929,1.476c2.931,0,5.805-1.43,7.533-4.064
	c3.162-4.819,23.917-36.009,41.863-62.948c1.412-2.12,1.807-4.622,1.299-6.927C235.249,240.686,235.131,240.289,234.989,239.904z
	 M335.42,195.254v139.825c0,0.089-0.001,0.178-0.004,0.267c-0.202,13.53-15.766,23.648-47.563,30.926
	c-26.803,6.135-62.303,9.513-99.961,9.513s-73.158-3.378-99.962-9.513c-32.007-7.326-47.566-17.529-47.566-31.193V195.254
	c0-69.679,48.553-128.229,113.606-143.592V32.864C153.971,14.743,168.714,0,186.835,0h2.116c18.12,0,32.862,14.743,32.862,32.864
	v18.797C286.868,67.024,335.42,125.575,335.42,195.254z M171.971,48.58c5.23-0.563,10.544-0.853,15.921-0.853
	s10.691,0.29,15.921,0.853V32.864c0-8.196-6.667-14.864-14.862-14.864h-2.116c-8.196,0-14.864,6.668-14.864,14.864V48.58z
	 M317.42,195.254c0-71.421-58.106-129.527-129.528-129.527S58.365,123.833,58.365,195.254v118.344
	c18.159-9.065,47.133-13.921,73.012-16.521c4.945-0.497,9.358,3.109,9.855,8.055c0.497,4.946-3.11,9.358-8.056,9.855
	c-21.78,2.188-40.635,5.646-54.528,9.999c-14.909,4.671-19.073,8.8-20.067,10.092c1.321,1.706,8.191,8.401,37.539,14.563
	c25.013,5.252,57.605,8.145,91.773,8.145s66.76-2.893,91.773-8.145c29.346-6.163,36.217-12.857,37.537-14.563
	c-0.994-1.292-5.159-5.421-20.067-10.092c-13.893-4.353-32.748-7.811-54.527-9.999c-4.945-0.497-8.552-4.909-8.055-9.855
	c0.497-4.945,4.902-8.554,9.855-8.055c25.878,2.6,54.854,7.456,73.012,16.521V195.254z"/>
<g>
</g>
<g>
</g>
<g>
</g>
<g>
</g>
<g>
</g>
<g>
</g>
<g>
</g>
<g>
</g>
<g>
</g>
<g>
</g>
<g>
</g>
<g>
</g>
<g>
</g>
<g>
</g>
<g>
</g>
</svg>
