<?xml version="1.0" encoding="iso-8859-1"?>
<!-- Generator: Adobe Illustrator 17.1.0, SVG Export Plug-In . SVG Version: 6.00 Build 0)  -->
<!DOCTYPE svg PUBLIC "-//W3C//DTD SVG 1.1//EN" "http://www.w3.org/Graphics/SVG/1.1/DTD/svg11.dtd">
<svg version="1.1" id="Capa_1" xmlns="http://www.w3.org/2000/svg" xmlns:xlink="http://www.w3.org/1999/xlink" x="0px" y="0px"
	 viewBox="0 0 394.522 394.522" style="enable-background:new 0 0 394.522 394.522;" xml:space="preserve">
<path d="M394.207,295.717c-0.627-2.303-2.144-4.263-4.215-5.449c-67.566-38.659-151.56-23.144-201.406,32.792
	c14.499-79.55,82.334-140.722,164.962-144.99c-1.154,22.74-6.585,44.671-16.187,65.317c-2.096,4.507-0.141,9.86,4.366,11.956
	c4.507,2.097,9.859,0.142,11.956-4.366c12.009-25.823,18.098-53.46,18.098-82.145c0-4.971-4.029-9-9-9
	c-107.485,0-194.945,87.392-195.063,194.851c-0.011,0.467,0.015,0.94,0.08,1.414c0.138,1.035,0.452,2.015,0.911,2.907
	c0.63,1.231,1.524,2.274,2.59,3.077c0.35,0.264,0.719,0.503,1.105,0.714c25.271,14.423,52.821,21.272,80.032,21.272
	c56.252,0,111.011-29.296,140.896-81.519C394.52,300.477,394.833,298.02,394.207,295.717z M202.703,357.153l57.331-15.6
	c4.796-1.305,7.626-6.251,6.321-11.047c-1.306-4.795-6.247-7.629-11.048-6.321l-57.331,15.6
	c41.781-51.217,114.434-67.877,174.859-38.253C335.749,357.689,264.676,380.138,202.703,357.153z M149.764,268.594
	c-6.379,0.439-12.735,1.078-19.043,1.908c-4.092-18.195-6.784-38.364-7.934-59.604c19.362,1.613,39.039,2.434,58.809,2.434
	c1.767,0,3.531-0.007,5.289-0.021c4.971-0.038,8.969-4.098,8.931-9.068s-4.087-9.01-9.068-8.931c-1.712,0.013-3.431,0.02-5.152,0.02
	c-19.989,0-39.876-0.86-59.409-2.547c-0.023-1.864-0.035-3.732-0.035-5.607c0-23.002,1.74-44.295,4.747-63.32
	c14.696,1.913,29.719,2.886,44.911,2.886c18.417,0,36.743-1.394,54.515-4.086c2.029,12.538,3.516,26.15,4.317,40.741
	c0.272,4.963,4.537,8.773,9.479,8.493c4.964-0.272,8.766-4.517,8.493-9.48c-0.814-14.835-2.372-29.248-4.601-42.9
	c23.139-4.74,45.006-11.733,64.481-20.75c0.022-0.01,0.044-0.021,0.066-0.031c7.446,11.084,13.567,23.229,18.098,36.245
	c1.635,4.694,6.764,7.173,11.459,5.542c4.694-1.634,7.175-6.765,5.541-11.458C318.968,58.121,251.894,10.46,176.74,10.454
	c-0.006,0-0.014,0-0.021,0C79.276,10.454,0,89.732,0,187.178c0,40.205,13.156,78.087,38.045,109.552
	c24.141,30.518,58.108,52.497,95.646,61.889c0.733,0.184,1.468,0.271,2.191,0.271c4.032,0,7.701-2.729,8.724-6.817
	c1.207-4.822-1.725-9.709-6.546-10.916c-26.25-6.567-49.562-19.429-68.496-36.739c15.062-5.871,31.159-10.432,47.794-13.562
	c2.021,7.019,4.261,13.693,6.711,19.966c1.808,4.63,7.026,6.917,11.657,5.109c4.63-1.808,6.917-7.027,5.109-11.657
	c-2-5.12-3.85-10.534-5.545-16.21c5.208-0.645,10.45-1.15,15.711-1.513c4.958-0.342,8.701-4.639,8.359-9.598
	C159.02,271.995,154.734,268.249,149.764,268.594z M297.389,84.03c-17.052,7.531-36.369,13.515-56.748,17.707
	c-3.62-16.603-8.298-31.696-13.888-44.565c-4.399-10.129-8.999-18.157-13.638-24.492C246.079,40.45,275.588,58.573,297.389,84.03z
	 M176.72,28.454c16.52,0,35.553,28.141,46.221,76.431c-16.785,2.53-34.036,3.858-51.13,3.858c-14.082,0-28.001-0.879-41.614-2.607
	C140.557,58.119,159.31,28.454,176.72,28.454z M43.397,101.134c20.455,8.945,42.595,15.633,65.756,19.928
	c-3.281,20.706-5.001,43.083-5.001,66.116c0,1.27,0.005,2.54,0.016,3.804c-29.899-3.404-58.768-8.773-85.705-15.991
	C20.529,147.926,29.415,122.728,43.397,101.134z M56.074,290.473c-22.653-26.48-36.51-60.347-37.949-96.958
	c27.312,7.072,56.452,12.32,86.553,15.633c1.099,22.791,3.905,44.535,8.256,64.228C93.018,277.203,73.81,282.964,56.074,290.473z
	 M112.424,103.366c-20.405-3.784-39.942-9.53-58.101-17.134c21.753-26.329,51.819-45.551,86.14-53.6
	c-6.348,8.59-12.112,19.572-17.109,32.757C119.007,76.859,115.346,89.632,112.424,103.366z"/>
<g>
</g>
<g>
</g>
<g>
</g>
<g>
</g>
<g>
</g>
<g>
</g>
<g>
</g>
<g>
</g>
<g>
</g>
<g>
</g>
<g>
</g>
<g>
</g>
<g>
</g>
<g>
</g>
<g>
</g>
</svg>
