<?xml version="1.0" encoding="iso-8859-1"?>
<!-- Generator: Adobe Illustrator 17.1.0, SVG Export Plug-In . SVG Version: 6.00 Build 0)  -->
<!DOCTYPE svg PUBLIC "-//W3C//DTD SVG 1.1//EN" "http://www.w3.org/Graphics/SVG/1.1/DTD/svg11.dtd">
<svg version="1.1" id="Capa_1" xmlns="http://www.w3.org/2000/svg" xmlns:xlink="http://www.w3.org/1999/xlink" x="0px" y="0px"
	 viewBox="0 0 378.373 378.373" style="enable-background:new 0 0 378.373 378.373;" xml:space="preserve">
<path d="M256.995,257.022l10.701-5.844c4.361-2.38,9.831-0.777,12.212,3.585c2.383,4.362,0.777,9.831-3.585,12.213l-10.701,5.844
	c-1.369,0.748-2.848,1.103-4.306,1.103c-3.186,0-6.272-1.695-7.906-4.688C251.027,264.873,252.633,259.405,256.995,257.022z
	 M271.808,314.213c-4.971,0-9,4.029-9,9s4.029,9,9,9h0.056c4.971,0,8.972-4.029,8.972-9S276.778,314.213,271.808,314.213z
	 M286.994,233.68h0.061c4.971,0,8.97-4.029,8.97-9s-4.06-9-9.03-9s-9,4.029-9,9S282.024,233.68,286.994,233.68z M299.007,284.926
	l10.697,5.847c1.37,0.749,2.85,1.104,4.309,1.104c3.185,0,6.271-1.694,7.905-4.685c2.384-4.362,0.78-9.83-3.581-12.214
	l-10.697-5.847c-4.36-2.385-9.83-0.78-12.214,3.581C293.042,277.074,294.646,282.542,299.007,284.926z M225.859,217.952
	l18.599,6.041c4.727,1.533,9.805-1.053,11.34-5.78c1.536-4.728-1.052-9.805-5.779-11.34l-15.842-5.146l-36.399-49.539
	c-9.369-22.758-26.102-52.268-62.975-52.268h-27.442c-37.436,0-54.113,30.429-63.401,53.317L8.021,241.805
	c-1.869,4.605,0.35,9.854,4.956,11.724c1.108,0.45,2.254,0.663,3.381,0.663c3.556,0,6.924-2.121,8.343-5.619l35.938-88.566
	c11.97-29.499,25.943-42.085,46.722-42.085h27.444c20.781,0,34.755,12.586,46.723,42.085c0.28,0.691,0.646,1.344,1.087,1.945
	l38.772,52.77C222.502,216.239,224.067,217.369,225.859,217.952z M364.239,236.466c-4.813-1.23-9.718,1.678-10.947,6.494
	l-29.975,117.41H252.01l-29.971-117.41c-1.23-4.817-6.14-7.727-10.946-6.494c-4.816,1.229-7.725,6.13-6.495,10.946l31.653,123.998
	c0.166,0.717,0.418,1.401,0.744,2.041c0.619,1.22,1.498,2.259,2.548,3.063c1.02,0.783,2.211,1.352,3.508,1.641
	c0.7,0.158,1.432,0.232,2.156,0.216h84.912c0.065,0.001,0.131,0.002,0.196,0.002c0.659,0,1.31-0.073,1.94-0.213
	c1.327-0.293,2.545-0.879,3.581-1.687c1.03-0.801,1.894-1.83,2.503-3.036c0.322-0.635,0.571-1.313,0.736-2.024l31.657-124.001
	C371.963,242.597,369.055,237.696,364.239,236.466z M80.706,40.374C80.706,18.112,98.818,0,121.08,0
	c22.264,0,40.376,18.112,40.376,40.374c0,22.263-18.112,40.376-40.376,40.376C98.818,80.75,80.706,62.637,80.706,40.374z
	 M98.706,40.374c0,12.338,10.037,22.376,22.374,22.376c12.338,0,22.376-10.038,22.376-22.376C143.456,28.037,133.418,18,121.08,18
	C108.743,18,98.706,28.037,98.706,40.374z M169.76,360.371h-15.212V153.087c0-4.971-4.029-9-9-9s-9,4.029-9,9v83.097h-30.937
	v-83.097c0-4.971-4.029-9-9-9s-9,4.029-9,9v207.283H72.403c-4.971,0-9,4.029-9,9s4.029,9,9,9h23.998
	c1.802,0.042,3.518-0.457,4.949-1.345c2.56-1.587,4.265-4.422,4.265-7.655c0-0.089-0.001-0.178-0.004-0.267V254.184h30.937v114.919
	c-0.003,0.089-0.004,0.178-0.004,0.267c0,3.233,1.705,6.068,4.265,7.655c1.376,0.854,3,1.348,4.739,1.348
	c0.07,0,0.14-0.001,0.21-0.002h24.002c4.971,0,9-4.029,9-9S174.731,360.371,169.76,360.371z"/>
<g>
</g>
<g>
</g>
<g>
</g>
<g>
</g>
<g>
</g>
<g>
</g>
<g>
</g>
<g>
</g>
<g>
</g>
<g>
</g>
<g>
</g>
<g>
</g>
<g>
</g>
<g>
</g>
<g>
</g>
</svg>
