<?xml version="1.0" encoding="iso-8859-1"?>
<!-- Generator: Adobe Illustrator 17.1.0, SVG Export Plug-In . SVG Version: 6.00 Build 0)  -->
<!DOCTYPE svg PUBLIC "-//W3C//DTD SVG 1.1//EN" "http://www.w3.org/Graphics/SVG/1.1/DTD/svg11.dtd">
<svg version="1.1" id="Capa_1" xmlns="http://www.w3.org/2000/svg" xmlns:xlink="http://www.w3.org/1999/xlink" x="0px" y="0px"
	 viewBox="0 0 375.785 375.785" style="enable-background:new 0 0 375.785 375.785;" xml:space="preserve">
<path d="M221.815,51.662V32.864C221.815,14.743,207.073,0,188.953,0h-2.117c-18.12,0-32.862,14.743-32.862,32.864v18.796
	C88.921,67.024,40.365,125.575,40.365,195.254v139.825c0,13.664,15.559,23.867,47.566,31.193
	c26.804,6.135,62.304,9.513,99.962,9.513c37.657,0,73.157-3.378,99.961-9.513c32.007-7.326,47.565-17.529,47.565-31.193V195.254
	C335.42,125.575,286.869,67.025,221.815,51.662z M171.974,32.864c0-8.196,6.667-14.864,14.862-14.864h2.117
	c8.195,0,14.862,6.668,14.862,14.864V48.58c-5.229-0.563-10.547-0.854-15.924-0.854s-10.688,0.289-15.917,0.853V32.864z
	 M317.42,313.625c-11.853-5.894-29.532-10.598-52.955-14.073c-4.919-0.725-9.493,2.666-10.224,7.582
	c-0.729,4.917,2.665,9.494,7.581,10.223c39.916,5.922,53.247,14.508,55.409,17.685c-1.252,1.646-8.011,8.393-37.565,14.599
	c-25.014,5.252-57.605,8.145-91.772,8.145c-34.168,0-66.76-2.893-91.773-8.145c-29.556-6.206-36.314-12.952-37.566-14.599
	c2.162-3.177,15.494-11.763,55.41-17.685c4.917-0.729,8.311-5.307,7.582-10.223c-0.729-4.917-5.309-8.313-10.223-7.582
	c-23.424,3.475-41.104,8.18-52.957,14.074V195.254c0-71.421,58.106-129.527,129.528-129.527
	c71.421,0,129.526,58.106,129.526,129.527V313.625z M265.978,135.183c-4.361,0.396-8.742,1.029-13.021,1.88
	c-32.218,6.417-60.009,24.996-78.254,52.314c-0.035,0.052-0.069,0.104-0.104,0.155c-18.672-16.328-43.484-23.818-68.478-20.234
	c-2.99,0.427-6.014,1.026-8.989,1.78c-3.733,0.946-6.451,4.163-6.76,8.001c-0.508,6.312-0.306,12.724,0.602,19.058
	c4.965,34.667,30.099,62.344,63.525,70.861c0.399,4.236,1.019,8.475,1.862,12.705c1.483,7.447,3.649,14.747,6.454,21.76
	l-9.741,16.591c-2.517,4.286-1.082,9.801,3.205,12.318c1.431,0.84,3,1.24,4.548,1.24c3.087,0,6.093-1.59,7.77-4.445l9.742-16.592
	c2.81-0.362,5.606-0.82,8.355-1.368c32.22-6.417,60.013-24.996,78.258-52.314s24.759-60.107,18.341-92.327
	c-1.791-8.987-4.575-17.761-8.277-26.081C273.449,136.968,269.821,134.832,265.978,135.183z M154.171,250.149
	c-23.987-8.028-41.698-28.864-45.378-54.564c-0.399-2.787-0.626-5.59-0.68-8.386c0.187-0.028,0.374-0.056,0.561-0.083
	c20.994-3.009,41.827,3.871,56.843,18.523C158.915,219.7,155.089,234.763,154.171,250.149z M249.983,248.898
	c-14.17,21.217-35.087,36.258-59.459,42.924l38.876-66.213c2.517-4.286,1.082-9.801-3.204-12.318c-1.432-0.84-3-1.24-4.548-1.24
	c-3.088,0-6.094,1.59-7.77,4.445l-38.865,66.193c-0.365-1.492-0.698-2.993-0.999-4.501c-1.089-5.469-1.742-10.955-1.967-16.422
	c0.003-0.157,0.001-0.315-0.004-0.474c-0.654-18.374,3.593-36.694,12.284-52.981c0.074-0.138,0.144-0.278,0.21-0.419
	c1.568-2.899,3.281-5.743,5.134-8.518c15.574-23.321,39.298-39.18,66.799-44.657c1.517-0.302,3.048-0.571,4.588-0.808
	c1.947,5.245,3.483,10.663,4.582,16.175C271.118,197.587,265.557,225.578,249.983,248.898z M96.975,132.99
	c9.042-11.332,19.658-21.266,31.554-29.525c4.082-2.834,9.691-1.823,12.525,2.26c2.835,4.083,1.823,9.69-2.26,12.525
	c-10.46,7.263-19.797,16-27.749,25.967c-1.777,2.227-4.397,3.387-7.041,3.387c-1.968,0-3.949-0.643-5.607-1.965
	C94.512,142.539,93.875,136.876,96.975,132.99z"/>
<g>
</g>
<g>
</g>
<g>
</g>
<g>
</g>
<g>
</g>
<g>
</g>
<g>
</g>
<g>
</g>
<g>
</g>
<g>
</g>
<g>
</g>
<g>
</g>
<g>
</g>
<g>
</g>
<g>
</g>
</svg>
